<?xml version="1.0" encoding="iso-8859-1"?>
<!-- Uploaded to: SVG Repo, www.svgrepo.com, Generator: SVG Repo Mixer Tools -->
<svg height="800px" width="800px" version="1.1" id="Layer_1" xmlns="http://www.w3.org/2000/svg" xmlns:xlink="http://www.w3.org/1999/xlink" 
	 viewBox="0 0 512.001 512.001" xml:space="preserve">
<path style="fill:#6DABE4;" d="M455.475,503.774H56.524c-9.613,0-17.406-7.793-17.406-17.406V25.632
	c0-9.613,7.793-17.406,17.406-17.406h398.95c9.613,0,17.406,7.793,17.406,17.406v460.736
	C472.88,495.98,465.088,503.774,455.475,503.774z"/>
<path style="opacity:0.15;enable-background:new    ;" d="M85.396,477.875c-9.613,0-17.406-7.793-17.406-17.406V8.226H56.524
	c-9.613,0-17.406,7.793-17.406,17.406v460.736c0,9.613,7.793,17.405,17.406,17.405h398.95c9.613,0,17.406-7.793,17.406-17.405
	v-8.494H85.396z"/>
<path style="fill:#FFFFFF;" d="M403.547,379.313H108.452c-3.678,0-6.659-2.981-6.659-6.658V77.561c0-3.678,2.981-6.659,6.659-6.659
	h295.093c3.678,0,6.658,2.981,6.658,6.659v295.094C410.204,376.332,407.223,379.313,403.547,379.313z"/>
<circle style="fill:#FFB547;" cx="200.999" cy="143.414" r="38.958"/>
<path style="fill:#4C9462;" d="M274.461,274.643c-10.745,0-20.942,2.312-30.153,6.435c-13.325-13.042-31.554-21.091-51.672-21.091
	c-14.665,0-28.321,4.29-39.814,11.659c-11.493-7.368-25.148-11.659-39.814-11.659c-3.813,0-7.557,0.29-11.215,0.847v111.82
	c0,3.678,2.981,6.658,6.659,6.658h233.18c4.302-9.373,6.718-19.791,6.718-30.779C348.352,307.726,315.269,274.643,274.461,274.643z"
	/>
<path style="fill:#8D6645;" d="M352.717,153.049c-7.416-12.844-25.955-12.844-33.371,0L188.713,379.313h214.833
	c3.678,0,6.658-2.981,6.658-6.658V252.621L352.717,153.049z"/>
<path style="fill:#99DAEA;" d="M352.717,153.049c-7.416-12.844-25.955-12.844-33.371,0l-41.055,71.11
	c17.3,8.931,36.93,13.977,57.741,13.977s40.441-5.047,57.741-13.977L352.717,153.049z"/>
<polygon style="opacity:0.1;enable-background:new    ;" points="188.713,379.313 226.521,379.313 313.42,163.313 "/>
<path style="fill:#1E252B;" d="M403.547,62.676H108.452c-8.208,0-14.885,6.678-14.885,14.885v295.093
	c0,8.208,6.678,14.884,14.885,14.884h295.093c8.208,0,14.885-6.677,14.885-14.884V77.561
	C418.431,69.353,411.754,62.676,403.547,62.676z M401.978,371.086H110.021V79.128h291.958v291.957H401.978z M455.475,0H56.524
	C42.39,0,30.892,11.498,30.892,25.632v460.736c0,14.134,11.498,25.632,25.632,25.632h398.951c14.134,0,25.632-11.498,25.632-25.632
	V25.632C481.108,11.498,469.609,0,455.475,0z M464.655,486.368c0,5.061-4.118,9.18-9.18,9.18H56.524c-5.061,0-9.18-4.118-9.18-9.18
	V25.632c0-5.061,4.118-9.18,9.18-9.18h398.951c5.061,0,9.18,4.118,9.18,9.18L464.655,486.368L464.655,486.368z"/>
</svg>