<?xml version="1.0" encoding="iso-8859-1"?>
<!-- Uploaded to: SVG Repo, www.svgrepo.com, Generator: SVG Repo Mixer Tools -->
<svg height="800px" width="800px" version="1.1" id="Layer_1" xmlns="http://www.w3.org/2000/svg" xmlns:xlink="http://www.w3.org/1999/xlink" 
	 viewBox="0 0 512.001 512.001" xml:space="preserve">
<path style="fill:#AB91EA;" d="M512.001,256.006c0,141.395-114.606,255.998-255.996,255.994
	C114.606,512.004,0.001,397.402,0.001,256.006C-0.007,114.61,114.606,0,256.005,0C397.395,0,512.001,114.614,512.001,256.006z"/>
<path style="fill:#947ADB;" d="M512.001,256.005c0-8.513-0.437-16.925-1.25-25.223c-0.089-0.086-113.485-113.518-114.01-114.011
	c-5.777-6.179-13.936-10.105-23.045-10.105h-62.714c-0.123-0.124-0.246-0.247-0.372-0.367c-0.473-0.55-19.197-19.22-19.713-19.713
	c-8.384-9.78-23.622-9.787-34.896-9.787c-16.355,0-41.067,0-41.067,29.867h-76.629c-17.447,0-31.637,14.19-31.637,31.638v265.257
	c0,9.11,3.924,17.27,10.107,23.049c0.491,0.526,76.82,76.854,77.344,77.344c0.199,0.213,0.412,0.409,0.614,0.614
	c19.638,4.822,40.146,7.433,61.273,7.433C397.395,512.004,512.001,397.401,512.001,256.005z"/>
<g>
	<path style="fill:#F4F6F9;" d="M368.001,144h-224c-4.127,0-7.467,3.34-7.467,7.467V390.4c0,4.127,3.34,7.467,7.467,7.467h224
		c4.127,0,7.467-3.34,7.467-7.467V151.467C375.467,147.34,372.127,144,368.001,144z M206.95,278.459
		c-2.144-4.849-6.423-8.334-10.565-11.711c-2.217-1.815-6.839-5.585-6.839-7.014s4.623-5.199,6.839-7.014
		c4.142-3.376,8.422-6.862,10.565-11.711c2.209-4.995,1.895-10.631,1.589-16.078c-0.16-2.741-0.481-8.451,0.46-9.537
		c1.036-0.97,7.022-0.437,9.894-0.16c5.629,0.517,11.411,1.05,16.698-0.999c5.068-1.969,8.83-6.205,12.468-10.303
		c2.297-2.589,6.147-6.919,7.94-6.919c1.793,0,5.644,4.332,7.94,6.919c3.638,4.098,7.401,8.334,12.468,10.31
		c5.294,2.042,11.076,1.509,16.698,0.992c2.873-0.27,8.867-0.81,9.888,0.16c0.948,1.087,0.627,6.796,0.467,9.537
		c-0.306,5.446-0.62,11.084,1.589,16.078c2.144,4.849,6.423,8.334,10.565,11.711c2.217,1.815,6.839,5.585,6.839,7.014
		s-4.623,5.199-6.839,7.014c-4.142,3.376-8.422,6.862-10.565,11.711c-2.209,4.995-1.895,10.631-1.589,16.078
		c0.16,2.741,0.481,8.451-0.46,9.537c-1.043,0.962-7.022,0.43-9.894,0.16c-5.622-0.511-11.411-1.043-16.698,0.999
		c-5.068,1.969-8.83,6.205-12.468,10.303c-2.297,2.589-6.147,6.919-7.94,6.919c-1.793,0-5.644-4.332-7.94-6.919
		c-3.638-4.098-7.401-8.334-12.468-10.31c-2.895-1.116-5.935-1.466-9.02-1.466c-2.553,0-5.134,0.241-7.678,0.474
		c-2.873,0.27-8.86,0.81-9.888-0.16c-0.948-1.087-0.627-6.796-0.467-9.537C208.845,289.089,209.159,283.453,206.95,278.459z
		 M360.534,382.933h-97.067v-47.405c4.704-2.339,8.447-6.481,11.637-10.076c2.231-2.515,5.009-5.644,6.716-6.3
		c2.005-0.78,6.205-0.394,9.909-0.051c7.299,0.663,15.575,1.444,21.525-4.171c5.994-5.666,5.513-14.299,5.119-21.233
		c-0.19-3.34-0.422-7.495,0.329-9.187c0.7-1.582,3.836-4.142,6.351-6.191c5.498-4.484,12.337-10.069,12.337-18.587
		c0-8.517-6.839-14.102-12.337-18.587c-2.515-2.049-5.651-4.608-6.351-6.191c-0.751-1.692-0.517-5.847-0.329-9.187
		c0.394-6.934,0.875-15.568-5.119-21.226c-5.935-5.615-14.19-4.842-21.525-4.178c-3.705,0.35-7.904,0.715-9.909-0.044
		c-1.707-0.663-4.484-3.792-6.716-6.307c-4.718-5.315-10.595-11.936-19.104-11.936c-8.509,0-14.386,6.621-19.104,11.936
		c-2.231,2.515-5.009,5.644-6.716,6.3c-1.998,0.78-6.205,0.401-9.909,0.051c-7.307-0.671-15.589-1.444-21.525,4.171
		c-5.994,5.666-5.513,14.299-5.119,21.233c0.19,3.34,0.422,7.495-0.329,9.187c-0.7,1.582-3.836,4.142-6.351,6.191
		c-5.498,4.484-12.337,10.069-12.337,18.587s6.839,14.102,12.337,18.587c2.515,2.049,5.651,4.608,6.351,6.191
		c0.751,1.692,0.517,5.847,0.329,9.187c-0.394,6.934-0.875,15.568,5.119,21.226c5.935,5.615,14.204,4.857,21.525,4.178
		c3.705-0.342,7.911-0.722,9.909,0.044c1.707,0.663,4.484,3.792,6.716,6.307c3.189,3.593,6.932,7.738,11.637,10.076v47.405h-97.067
		v-224h209.067V382.933z"/>
	<path style="fill:#F4F6F9;" d="M373.695,106.667h-76.628c0-29.867-24.711-29.867-41.067-29.867c-16.355,0-41.067,0-41.067,29.867
		h-76.628c-17.449,0-31.638,14.19-31.638,31.638v265.257c0,17.449,14.19,31.638,31.638,31.638h235.39
		c17.449,0,31.638-14.19,31.638-31.638V138.305C405.334,120.857,391.144,106.667,373.695,106.667z M256.001,91.733
		c20.876,0,26.133,1.757,26.133,14.933h-52.267C229.867,93.49,235.125,91.733,256.001,91.733z M390.401,403.562
		c0,9.21-7.495,16.705-16.705,16.705h-235.39c-9.21,0-16.705-7.495-16.705-16.705V138.305c0-9.21,7.495-16.705,16.705-16.705h235.39
		c9.21,0,16.705,7.495,16.705,16.705V403.562z"/>
	<path style="fill:#F4F6F9;" d="M233.922,272.61c1.561,3.77,4.944,5.228,6.986,5.95c0.722,2.042,2.18,5.425,5.95,6.986
		c3.792,1.582,7.153,0.182,9.143-0.773c1.342,0.642,3.296,1.488,5.593,1.488c1.116,0,2.311-0.197,3.551-0.715
		c3.77-1.561,5.228-4.944,5.95-6.986c2.042-0.722,5.425-2.18,6.986-5.95c1.582-3.806,0.182-7.153-0.773-9.143
		c0.956-1.99,2.355-5.338,0.773-9.143c-1.561-3.77-4.944-5.228-6.986-5.95c-0.722-2.042-2.18-5.425-5.95-6.986
		c-3.792-1.589-7.153-0.182-9.143,0.773c-1.99-0.956-5.353-2.363-9.143-0.773c-3.77,1.561-5.228,4.944-5.95,6.986
		c-2.042,0.722-5.425,2.18-6.986,5.95c-1.582,3.806-0.182,7.153,0.773,9.143C233.739,265.457,232.339,268.804,233.922,272.61z
		 M249.693,260.842c0.707-0.416,1.429-0.941,2.1-1.612c0.656-0.656,1.174-1.371,1.589-2.07c1.604,0.409,3.638,0.409,5.243,0
		c0.416,0.707,0.941,1.429,1.612,2.1c0.656,0.656,1.371,1.174,2.07,1.589c-0.204,0.802-0.335,1.677-0.335,2.618
		s0.131,1.823,0.335,2.625c-0.707,0.416-1.429,0.941-2.1,1.612c-0.656,0.656-1.174,1.371-1.589,2.07
		c-1.604-0.409-3.638-0.409-5.243,0c-0.416-0.707-0.941-1.429-1.612-2.1c-0.656-0.656-1.371-1.174-2.07-1.589
		c0.204-0.802,0.335-1.677,0.335-2.618S249.897,261.644,249.693,260.842z"/>
</g>
</svg>