<?xml version="1.0" encoding="iso-8859-1"?>
<!-- Uploaded to: SVG Repo, www.svgrepo.com, Generator: SVG Repo Mixer Tools -->
<svg height="800px" width="800px" version="1.1" id="Layer_1" xmlns="http://www.w3.org/2000/svg" xmlns:xlink="http://www.w3.org/1999/xlink" 
	 viewBox="0 0 512 512" xml:space="preserve">
<path style="fill:#6DABE4;" d="M462.099,512H49.902c-9.932,0-17.984-8.052-17.984-17.984V17.984C31.918,8.052,39.97,0,49.902,0
	h412.196c9.932,0,17.984,8.052,17.984,17.984v476.033C480.082,503.948,472.031,512,462.099,512z"/>
<path style="opacity:0.15;enable-background:new    ;" d="M79.733,485.241c-9.932,0-17.984-8.051-17.984-17.983V0H49.902
	C39.97,0,31.918,8.052,31.918,17.983v476.033c0,9.932,8.052,17.983,17.984,17.983h412.196c9.932,0,17.984-8.052,17.984-17.983
	v-8.776H79.733V485.241z"/>
<path style="fill:#FFFFFF;" d="M408.446,383.407H103.555c-3.8,0-6.879-3.08-6.879-6.879V71.637c0-3.8,3.08-6.879,6.879-6.879
	h304.891c3.8,0,6.879,3.08,6.879,6.879v304.891C415.325,380.327,412.245,383.407,408.446,383.407z"/>
<circle style="fill:#FFB547;" cx="199.174" cy="139.676" r="40.252"/>
<path style="fill:#4C9462;" d="M275.075,275.262c-11.102,0-21.638,2.389-31.154,6.649c-13.767-13.475-32.602-21.792-53.386-21.792
	c-15.152,0-29.261,4.432-41.136,12.046c-11.874-7.612-25.983-12.046-41.136-12.046c-3.939,0-7.808,0.299-11.588,0.875v115.533
	c0,3.8,3.08,6.879,6.879,6.879h240.922c4.445-9.684,6.941-20.448,6.941-31.801C351.419,309.443,317.238,275.262,275.075,275.262z"/>
<path style="fill:#8D6645;" d="M355.929,149.631c-7.662-13.271-26.817-13.271-34.479,0L186.48,383.407h221.965
	c3.8,0,6.879-3.08,6.879-6.879v-124.02L355.929,149.631z"/>
<path style="fill:#99DAEA;" d="M355.929,149.631c-7.662-13.271-26.817-13.271-34.479,0l-42.418,73.471
	c17.874,9.227,38.156,14.441,59.658,14.441c21.502,0,41.784-5.214,59.658-14.441L355.929,149.631z"/>
<polygon style="opacity:0.1;enable-background:new    ;" points="186.48,383.407 225.544,383.407 315.328,160.236 "/>
</svg>