<?xml version="1.0" encoding="iso-8859-1"?>
<!-- Uploaded to: SVG Repo, www.svgrepo.com, Generator: SVG Repo Mixer Tools -->
<svg height="800px" width="800px" version="1.1" id="Layer_1" xmlns="http://www.w3.org/2000/svg" xmlns:xlink="http://www.w3.org/1999/xlink" 
	 viewBox="0 0 512 512" xml:space="preserve">
<path style="fill:#2D527C;" d="M497.778,457.795H14.222C6.369,457.795,0,451.426,0,443.573V68.427
	c0-7.854,6.369-14.222,14.222-14.222h483.556c7.854,0,14.222,6.369,14.222,14.222v56.887c0,7.854-6.369,14.222-14.222,14.222
	s-14.222-6.369-14.222-14.222V82.65H28.444v346.699h455.111V213.875c0-7.854,6.369-14.222,14.222-14.222S512,206.022,512,213.875
	v229.697C512,451.426,505.631,457.795,497.778,457.795z"/>
<path style="fill:#CEE8FA;" d="M300.602,386.684h140.287V125.316H71.111v261.366h142.756 M217.956,386.684H90.61l101.639-148.826
	l108.353,148.826 M334.222,251.611c-23.565,0-42.667-19.102-42.667-42.667c0-23.563,19.102-42.667,42.667-42.667
	s42.667,19.103,42.667,42.667S357.787,251.611,334.222,251.611z"/>
<path style="fill:#2D527C;" d="M300.614,400.907c-0.274,0-0.55-0.009-0.825-0.024c-2.022-0.115-3.932-0.651-5.642-1.523
	c-1.708-0.869-3.264-2.095-4.544-3.661c-0.209-0.256-0.411-0.518-0.603-0.789l-96.38-132.378l-75.076,109.929h100.412
	c7.854,0,14.222,6.369,14.222,14.222s-6.369,14.222-14.222,14.222H71.111c-7.854,0-14.222-6.369-14.222-14.222V125.316
	c0-7.854,6.369-14.222,14.222-14.222h369.778c7.854,0,14.222,6.369,14.222,14.222v261.366c0,7.854-6.369,14.222-14.222,14.222
	H300.782C300.726,400.906,300.669,400.907,300.614,400.907z M307.84,372.462h118.827V139.538H85.333v229.653l95.171-139.354
	c2.607-3.819,6.906-6.131,11.53-6.199c4.636-0.102,8.99,2.111,11.711,5.85L307.84,372.462z M334.222,265.833
	c-31.369,0-56.889-25.52-56.889-56.889s25.52-56.889,56.889-56.889s56.889,25.52,56.889,56.889S365.591,265.833,334.222,265.833z
	 M334.222,180.5c-15.684,0-28.444,12.76-28.444,28.444s12.76,28.444,28.444,28.444s28.444-12.76,28.444-28.444
	S349.906,180.5,334.222,180.5z"/>
</svg>