<?xml version="1.0" encoding="iso-8859-1"?>
<!-- Uploaded to: SVG Repo, www.svgrepo.com, Generator: SVG Repo Mixer Tools -->
<svg version="1.1" id="Layer_1" xmlns="http://www.w3.org/2000/svg" xmlns:xlink="http://www.w3.org/1999/xlink" 
	 viewBox="0 0 451.296 451.296" xml:space="preserve">
<circle style="fill:#45B39C;" cx="225.638" cy="225.638" r="225.638"/>
<path style="opacity:0.1;enable-background:new    ;" d="M451.296,225.638c0-5.989-0.304-11.904-0.762-17.775L339.026,96.355
	H112.251v258.566l95.613,95.613c5.871,0.458,11.786,0.762,17.775,0.762C350.266,451.296,451.296,350.265,451.296,225.638z"/>
<rect x="112.251" y="96.353" style="fill:#EBF0F3;" width="226.765" height="258.56"/>
<rect x="133.12" y="115.144" style="fill:#2D93BA;" width="185.037" height="182.236"/>
<polygon style="fill:#2F4859;" points="240.038,250.641 269.867,297.396 281.901,297.396 245.919,241.001 "/>
<circle style="fill:#FCD462;" cx="225.741" cy="144.998" r="18.033"/>
<path style="fill:#FFFFFF;" d="M187.725,205.987c2.004,1.046,2.978,3.198,4.812,4.473c1.913,1.33,4.515,1.547,6.587,2.666
	c1.756,0.948,3.011,2.472,4.352,3.866c3.082,3.204,6.854,5.89,11.115,7.689c3.525,1.488,7.433,2.423,11.162,3.569l-32.925-51.607
	l-15.791,25.879c1.66,1.144,3.571,1.994,5.622,2.353C184.375,205.176,186.211,205.197,187.725,205.987z"/>
<path style="fill:#3A556A;" d="M225.752,228.249c-3.729-1.146-7.637-2.08-11.162-3.569c-4.26-1.799-8.032-4.485-11.115-7.689
	c-1.341-1.394-2.596-2.918-4.352-3.866c-2.072-1.118-4.674-1.336-6.587-2.666c-1.833-1.275-2.808-3.427-4.812-4.473
	c-1.514-0.79-3.351-0.81-5.067-1.112c-2.052-0.359-3.962-1.209-5.622-2.353l-43.925,71.992v22.881h136.757L225.752,228.249z"/>
<path style="fill:#FFFFFF;" d="M265.238,221.694c4.307-0.599,8.615-1.96,12.92-1.344c1.572,0.225,3.082,0.709,4.624,1.067
	c3.37,0.781,6.849,0.921,10.339,0.857l-18.287-28.662l-16.926,27.741C260.224,221.966,262.831,222.029,265.238,221.694z"/>
<path style="fill:#3A556A;" d="M293.121,222.274c-3.491,0.063-6.969-0.076-10.339-0.857c-1.542-0.357-3.052-0.841-4.624-1.067
	c-4.305-0.616-8.613,0.744-12.92,1.344c-2.407,0.335-5.014,0.272-7.33-0.341l-11.989,19.649l35.982,56.394h36.267v-35.862
	L293.121,222.274z"/>
</svg>